<?xml version="1.0" encoding="utf-8"?>
<!-- Generator: Adobe Illustrator 23.0.5, SVG Export Plug-In . SVG Version: 6.00 Build 0)  -->
<svg version="1.1" id="Capa_1" xmlns="http://www.w3.org/2000/svg" xmlns:xlink="http://www.w3.org/1999/xlink" x="0px" y="0px"
	 width="71.9px" height="55px" viewBox="0 0 71.9 55" style="enable-background:new 0 0 71.9 55;" xml:space="preserve">
<style type="text/css">
	.st0{fill:#0092FF;}
	.st1{opacity:0.75;}
</style>
<g>
	<g>
		<path class="st0" d="M67,12.3L55.8,4.9c-0.7-0.5-1.4-0.7-2.2-0.7s-1.5,0.2-2.2,0.7l-13.3,8.8c-0.7,0.4-1.4,0.7-2.2,0.7
			s-1.5-0.2-2.2-0.7L20.4,4.9c-0.7-0.5-1.5-0.7-2.2-0.7S16.7,4.4,16,4.9L4.8,12.3c-2.2,1.5-2.2,4.6,0,6.1l25.5,16.8
			c1.7,1.1,3.7,1.7,5.6,1.7c2,0,3.9-0.6,5.6-1.7L67,18.3C69.2,16.9,69.2,13.7,67,12.3z"/>
	</g>
	<g class="st1">
		<g>
			<path class="st0" d="M67,25.3l-2.7-1.8l-21.1,14c-2.1,1.4-4.7,2.2-7.3,2.2s-5.1-0.8-7.3-2.2l-21.1-14l-2.7,1.8
				c-2.2,1.5-2.2,4.6,0,6.1l27.4,18.2c2.2,1.5,5.2,1.5,7.4,0L67,31.4C69.2,29.9,69.2,26.7,67,25.3z"/>
		</g>
	</g>
</g>
</svg>
