<?xml version="1.0" encoding="utf-8"?>
<!-- Generator: Adobe Illustrator 23.0.1, SVG Export Plug-In . SVG Version: 6.00 Build 0)  -->
<svg version="1.1" id="Capa_1" xmlns="http://www.w3.org/2000/svg" xmlns:xlink="http://www.w3.org/1999/xlink" x="0px" y="0px"
	 viewBox="0 0 200 55" style="enable-background:new 0 0 200 55;" xml:space="preserve">
<style type="text/css">
	.st0{fill:#FFFFFF;}
	.st1{font-family:'WorkSans-ExtraLight';}
	.st2{font-size:9.3915px;}
	.st3{fill:#0092FF;}
	.st4{opacity:0.75;}
</style>
<g>
	<g>
		<path class="st0" d="M117.2,12.2L117.2,12.2l-13.8,30h-1L88.5,12.3v-0.1h3l9.7,21c0.7,1.6,1.2,2.7,1.6,3.8
			c0.4-1.2,1.1-2.8,1.7-3.9l9.5-20.9C114,12.2,117.2,12.2,117.2,12.2z"/>
		<path class="st0" d="M126.5,12.2h2.9V42h-2.9C126.5,42,126.5,12.2,126.5,12.2z"/>
		<path class="st0" d="M142.6,12.2h2.9V42h-2.9V12.2z"/>
		<path class="st0" d="M156.7,27.1c0-8.8,6.3-15.4,15.1-15.4c8.9,0,15.1,6.5,15.1,15.4c0,8.5-6.2,15.5-15.1,15.5
			C163,42.5,156.7,35.6,156.7,27.1z M184,27.1c0-7.4-4.9-12.7-12.2-12.7c-7.2,0-12.2,5.3-12.2,12.7c0,7,4.9,12.8,12.2,12.8
			S184,34.1,184,27.1z"/>
	</g>
	<text transform="matrix(1 0 0 1 189.2119 43.3096)" class="st0 st1 st2">®</text>
</g>
<g>
	<path class="st3" d="M66.6,13.1L55.4,5.7C54.7,5.2,54,5,53.2,5S51.7,5.2,51,5.7l-13.3,8.8c-0.7,0.4-1.4,0.7-2.2,0.7
		S34,15,33.3,14.5L20,5.7C19.3,5.2,18.5,5,17.8,5s-1.5,0.2-2.2,0.7L4.4,13.1c-2.2,1.5-2.2,4.6,0,6.1L29.9,36
		c1.7,1.1,3.7,1.7,5.6,1.7c2,0,3.9-0.6,5.6-1.7l25.5-16.9C68.8,17.7,68.8,14.5,66.6,13.1z"/>
</g>
<g class="st4">
	<g>
		<path class="st3" d="M66.6,26.1l-2.7-1.8l-21.1,14c-2.1,1.4-4.7,2.2-7.3,2.2s-5.1-0.8-7.3-2.2l-21.1-14l-2.7,1.8
			c-2.2,1.5-2.2,4.6,0,6.1l27.4,18.2c2.2,1.5,5.2,1.5,7.4,0l27.4-18.2C68.8,30.7,68.8,27.5,66.6,26.1z"/>
	</g>
</g>
</svg>
